<svg width="26" height="28" viewBox="0 0 26 28" fill="none" xmlns="http://www.w3.org/2000/svg">
<path d="M8.21326 3.10501H7.95544C8.09724 3.10501 8.21326 2.98548 8.21326 2.83939V3.10501H18.0101V2.83939C18.0101 2.98548 18.1261 3.10501 18.2679 3.10501H18.0101V5.49564H20.3304V2.83939C20.3304 1.66732 19.4055 0.714386 18.2679 0.714386H7.95544C6.81785 0.714386 5.89294 1.66732 5.89294 2.83939V5.49564H8.21326V3.10501ZM24.4554 5.49564H1.76794C1.19753 5.49564 0.736694 5.97044 0.736694 6.55814V7.62064C0.736694 7.76673 0.85271 7.88626 0.994507 7.88626H2.94099L3.73699 25.2515C3.78855 26.3837 4.69734 27.2769 5.79626 27.2769H20.4271C21.5293 27.2769 22.4348 26.387 22.4864 25.2515L23.2824 7.88626H25.2289C25.3707 7.88626 25.4867 7.76673 25.4867 7.62064V6.55814C25.4867 5.97044 25.0259 5.49564 24.4554 5.49564ZM20.179 24.8863H6.04441L5.26453 7.88626H20.9589L20.179 24.8863Z" fill="#031323"/>
</svg>
