<svg width="27" height="27" viewBox="0 0 27 27" fill="none" xmlns="http://www.w3.org/2000/svg">
<path d="M18.9281 4.65697L21.8404 7.65605L18.9281 4.65697ZM20.8009 2.01488L12.9262 10.1281C12.5194 10.5468 12.2419 11.0801 12.1287 11.661L11.4014 15.4123L15.0424 14.6615C15.6061 14.5453 16.1231 14.2606 16.5301 13.8412L24.4047 5.72797C24.6414 5.48416 24.8291 5.19473 24.9572 4.87618C25.0852 4.55763 25.1511 4.21622 25.1511 3.87143C25.1511 3.52663 25.0852 3.18522 24.9572 2.86667C24.8291 2.54813 24.6414 2.25869 24.4047 2.01488C24.1681 1.77108 23.8872 1.57768 23.578 1.44574C23.2688 1.31379 22.9375 1.24588 22.6028 1.24588C22.2682 1.24588 21.9368 1.31379 21.6276 1.44574C21.3184 1.57768 21.0375 1.77108 20.8009 2.01488V2.01488Z" stroke="#031323" stroke-width="2" stroke-linecap="round" stroke-linejoin="round"/>
<path d="M22.4014 18.2456V22.4956C22.4014 23.2471 22.1116 23.9677 21.5959 24.4991C21.0802 25.0305 20.3807 25.329 19.6514 25.329H4.52637C3.79702 25.329 3.09755 25.0305 2.58182 24.4991C2.0661 23.9677 1.77637 23.2471 1.77637 22.4956V6.9123C1.77637 6.16085 2.0661 5.44019 2.58182 4.90883C3.09755 4.37748 3.79702 4.07897 4.52637 4.07897H8.65137" stroke="#031323" stroke-width="2" stroke-linecap="round" stroke-linejoin="round"/>
</svg>
